<svg xmlns="http://www.w3.org/2000/svg" viewBox="0 0 930 931" width="930" height="931">
	<style>
		tspan { white-space:pre }
		.shp0 { opacity: 1;fill: url(#grd1) }
		.shp1 { fill: #f4f4f4 }
		.shp2 { fill: url(#grd2) }
	</style>
	<g id="Layer 1">
		<path id="&lt;Path&gt;" class="shp0" d="M1216 1352.22L-384 1352.22L-384 -247.78L1216 -247.78L1216 1352.22Z" />
		<g id="&lt;Group&gt;">
			<g id="&lt;Group&gt;">
				<path id="&lt;Path&gt;" class="shp1" d="M719.92 425.95L736.9 433.52L729.95 416.72C728.6 413.43 727.23 410.39 725.82 407.27C724.39 404.19 722.93 401.12 721.41 398.09C719.87 395.07 718.4 392.01 716.77 389.04C715.15 386.05 713.62 383.07 711.87 380.1C710.14 377.16 708.45 374.13 706.71 371.26L701.34 362.81C699.35 359.81 697.4 357.11 695.43 354.25C693.33 351.54 691.28 348.79 689.14 346.13C686.94 343.52 684.77 340.88 682.44 338.39C680.11 335.91 677.85 333.37 675.42 331C673.05 328.58 670.64 326.19 668.16 323.89C665.71 321.56 663.12 319.38 660.58 317.15C658.01 314.96 655.41 312.81 652.78 310.71C650.16 308.59 647.44 306.59 644.73 304.61C641.99 302.65 639.28 300.67 636.45 298.85C633.64 297.01 630.82 295.19 627.89 293.55C632.91 297.99 637.71 302.62 642.45 307.29C644.81 309.62 647.09 312.04 649.4 314.42C651.7 316.8 653.96 319.23 656.18 321.68C658.38 324.15 660.59 326.6 662.69 329.14C664.87 331.61 666.97 334.15 669.02 336.71C671.13 339.23 673.05 341.9 675.04 344.49C677.03 347.09 678.8 349.84 680.75 352.45C682.6 355.13 684.34 357.87 686.14 360.57C687.76 363.34 689.51 366.19 691.02 368.86L695.77 377.67C697.34 380.59 698.75 383.47 700.25 386.36C701.76 389.22 703.08 392.27 704.55 395.19C706.02 398.12 707.32 401.14 708.7 404.11C709.09 404.94 709.45 405.79 709.82 406.63C709.02 406.39 708.22 406.16 707.42 405.91C705.33 405.24 703.21 404.76 701.1 404.2C698.99 403.69 696.89 403.07 694.75 402.68L688.37 401.4C686.25 400.93 684.1 400.66 681.96 400.32L675.55 399.34L674.75 399.22L673.86 399.11L672.29 398.95L669.16 398.62L662.56 398.09C660.38 398 658.21 397.83 656.02 397.81C653.83 397.76 651.65 397.75 649.45 397.8C647.26 397.82 645.06 397.93 642.87 398.05C640.67 398.18 638.46 398.37 636.26 398.63C634.05 398.9 631.84 399.2 629.62 399.61C628.51 399.8 627.39 400.03 626.27 400.27C625.08 400.55 624.12 400.76 622.64 401.21L597.94 408.75L623.04 413.42C624.83 413.75 626.96 414.26 628.94 414.78C630.94 415.3 632.95 415.88 634.93 416.51C638.91 417.76 642.83 419.2 646.64 420.85C648.56 421.66 650.41 422.58 652.29 423.46C654.14 424.38 655.98 425.33 657.76 426.36C661.32 428.42 664.72 430.74 667.81 433.38C668.57 434.05 669.35 434.71 670.06 435.42L670.61 435.95L670.75 436.08L670.81 436.14L670.83 436.16C670.86 436.19 670.68 435.98 670.76 436.08L670.8 436.11L671.07 436.41L672.2 437.6C672.92 438.39 673.76 439.2 674.38 439.97L676.31 442.3C676.97 443.06 677.54 443.96 678.16 444.79C678.78 445.64 679.39 446.49 679.93 447.39C681.09 449.14 682.11 450.98 683.14 452.83C684.12 454.7 685.11 456.59 685.94 458.56C686.82 460.51 687.61 462.5 688.3 464.53C689.75 468.59 690.93 472.76 691.69 477.07C691.8 474.88 691.71 472.68 691.55 470.49C691.35 468.29 691.13 466.08 690.73 463.91C690.36 461.72 689.88 459.54 689.31 457.39C688.77 455.22 688.08 453.09 687.36 450.96C686.58 448.85 685.73 446.76 684.75 444.73C684.3 443.68 683.77 442.68 683.23 441.68C682.67 440.69 682.2 439.67 681.56 438.68L679.7 435.7C679.07 434.69 678.42 433.9 677.79 432.98L676.83 431.65L676.59 431.33L676.23 430.89L675.67 430.22C674.93 429.31 674.13 428.46 673.34 427.61C670.14 424.23 666.61 421.22 662.89 418.51C659.59 416.11 656.14 413.93 652.57 412C653.52 412.05 654.48 412.07 655.43 412.14C657.44 412.21 659.46 412.43 661.47 412.57L667.42 413.2L673.53 414.03L679.57 415.01C681.57 415.34 683.6 415.61 685.57 416.07L691.54 417.31C693.54 417.68 695.48 418.23 697.45 418.7C699.4 419.19 701.39 419.63 703.31 420.23C705.23 420.81 707.19 421.32 709.08 421.96C710.95 422.61 712.89 423.19 714.71 423.89C716.52 424.54 718.5 425.32 719.92 425.95Z" />
				<path id="&lt;Path&gt;" class="shp1" d="M772.5 481.84C755.61 467.66 740.02 456.84 725.75 449.37C783.56 510.27 810.21 544.53 805.69 552.14C801.17 559.76 789.99 559.28 772.14 550.72C775 563.09 779.99 571.42 787.13 575.7C795.84 580.92 812.11 585.33 811.76 589.97C811.52 593.06 809.02 595.44 804.26 597.11C805.69 604.01 808.78 607.34 813.54 607.1C820.68 606.74 837.45 576.41 837.09 555C836.9 543.42 802.36 506.91 772.5 481.84Z" />
				<path id="&lt;Path&gt;" class="shp1" d="M804.97 622.09C804.8 622.45 804.55 622.97 804.23 623.65C803.78 624.67 803.02 626.14 802.2 628.04C801.35 629.92 800.31 632.2 799.12 634.81C797.96 637.4 796.66 640.33 795.23 643.52C794.53 645.1 793.82 646.76 793.01 648.44C792.23 650.13 791.51 651.91 790.64 653.67C789.02 657.25 787.21 660.94 785.38 664.74C784.38 666.59 783.45 668.51 782.47 670.42C781.41 672.27 780.36 674.15 779.35 676.06C778.23 677.88 777.06 679.68 775.98 681.54C774.78 683.24 773.56 684.95 772.35 686.66L770.6 688.79L769.75 689.87C769.59 690.06 769.49 690.23 769.3 690.42L768.66 691.02C767.81 691.81 766.97 692.62 766.15 693.43L765.53 694.03L765.25 694.3L764.13 695.13C763.36 695.72 762.58 696.31 761.81 696.9C761.02 697.46 760.16 697.92 759.35 698.44C757.74 699.54 755.95 700.29 754.24 701.17C752.53 702.07 750.66 702.57 748.93 703.36C747.11 703.9 745.33 704.52 743.54 704.98C741.73 705.41 739.98 705.91 738.22 706.19C736.48 706.56 734.78 706.85 733.12 707.06C729.8 707.58 726.69 707.83 723.89 708.04C721.1 708.23 718.63 708.37 716.58 708.41C714.51 708.43 712.88 708.45 711.78 708.46C711.03 708.46 710.45 708.45 710.05 708.45C710.39 708.66 710.9 708.95 711.57 709.29C712.58 709.79 714.06 710.57 716.04 711.33C718.01 712.09 720.43 713.01 723.3 713.77C726.17 714.54 729.46 715.28 733.15 715.7C736.83 716.2 740.9 716.32 745.25 716.09C747.43 716.01 749.65 715.59 751.96 715.31C753.1 715.07 754.25 714.82 755.41 714.54C756.58 714.26 757.76 714.01 758.92 713.57C761.25 712.79 763.64 712.01 765.92 710.78C767.07 710.21 768.26 709.68 769.39 709.03C770.48 708.31 771.59 707.59 772.69 706.86L774.34 705.75L774.55 705.61L775.11 705.14L775.43 704.85L776.09 704.28C776.96 703.53 777.83 702.76 778.69 701.97C779.52 701.32 780.52 700.04 781.44 699.04L784.2 695.82C785.74 693.69 787.12 691.59 788.55 689.46C789.81 687.31 790.98 685.11 792.15 682.95C793.2 680.75 794.2 678.56 795.16 676.39C796.02 674.19 796.87 672.02 797.64 669.87C799.11 665.57 800.35 661.37 801.31 657.35C802.27 653.33 803.03 649.51 803.56 645.96C804.13 642.42 804.48 639.14 804.74 636.24C804.98 633.34 805.06 630.79 805.11 628.69C805.18 626.61 805.09 624.94 805.07 623.82C805.05 623.07 805.01 622.49 804.97 622.09Z" />
				<path id="&lt;Path&gt;" class="shp1" d="M674.43 678.73C672.83 675.39 671.07 672.13 669.35 668.84L666.54 663.9C665.6 662.21 664.61 660.67 663.63 659.12L662.14 656.8C661.4 655.8 660.85 655.05 660.11 654.24C658.72 652.62 657.17 651.17 655.54 649.85C652.28 647.17 648.61 645.16 644.85 643.56C641.08 641.99 637.2 640.83 633.27 640.05C632.52 639.91 631.76 639.78 631 639.66C631.61 638.14 632.17 636.61 632.64 635.07C634.03 630.6 634.8 626.03 635.29 621.48C635.76 616.92 635.77 612.36 635.55 607.85C635.34 603.34 634.67 598.9 633.92 594.5C633.09 590.13 632.06 585.8 630.76 581.58C629.54 577.34 628.04 573.21 626.42 569.14L623.88 563.1L621.08 557.21L618.1 551.43C617.08 549.51 615.94 547.62 614.87 545.72C613.78 543.78 612.67 542.1 611.57 540.28C610.53 538.61 609.12 536.43 607.76 534.55C604.95 530.74 601.69 527.45 598.23 524.52C591.32 518.66 583.66 514.23 575.79 510.62C567.93 506.98 559.81 504.2 551.59 501.96C547.48 500.87 543.33 499.93 539.18 499.09C535.02 498.29 530.83 497.6 526.63 497.19C534.59 499.98 542.38 503.08 549.95 506.54C557.53 509.97 564.91 513.75 571.85 518.02C578.78 522.29 585.3 527.1 590.74 532.62C593.43 535.4 595.89 538.31 597.84 541.42C598.81 543.04 599.6 544.43 600.55 546.46C601.47 548.32 602.53 550.23 603.34 552.04C605.05 555.66 606.73 559.35 608.35 563.08C609.9 566.82 611.4 570.56 612.79 574.34C614.1 578.13 615.38 581.93 616.46 585.75C617.59 589.57 618.43 593.43 619.25 597.28C619.98 601.14 620.52 605.02 620.88 608.88C621.23 612.74 621.28 616.59 621.13 620.41C620.97 624.21 620.49 627.98 619.7 631.61C619.31 633.44 618.98 635.27 618.22 636.92C615.86 642.08 612.45 647.25 607.99 652.42L621.64 651.06C622.95 650.97 624.78 650.97 626.39 651.05C628.05 651.13 629.71 651.28 631.36 651.5C634.66 651.93 637.91 652.63 640.99 653.65C644.06 654.7 646.98 656.06 649.57 657.82C650.86 658.69 652.09 659.65 653.2 660.73C653.75 661.22 654.33 661.92 654.75 662.33L656.53 664.43C657.73 665.82 658.96 667.2 660.02 668.59L663.37 672.76L670.04 681.44L676.72 690.21C678.93 693.15 681.2 696.07 683.46 698.99C682.11 695.55 680.66 692.14 679.14 688.77C677.59 685.43 676.09 682.04 674.43 678.73Z" />
			</g>
			<path id="&lt;Path&gt;" class="shp1" d="M571.28 677.09C570.94 672.74 570.72 668.38 570.23 664.03L569.57 657.5L568.73 650.99C568.22 646.65 567.43 642.33 566.72 638.01C565.88 633.7 565.04 629.4 564.07 625.12C563.02 620.85 562.09 616.57 560.83 612.35L559.05 606L557.01 599.72C555.73 595.52 554.08 591.42 552.56 587.29C550.98 583.18 549.14 579 547.35 574.97L536.11 552.1C535.22 550.21 534.19 548.37 533.43 546.43L531.05 540.63C529.52 536.75 527.78 532.93 526.4 528.99L522.32 517.13C521.99 516.14 521.62 515.16 521.32 514.16L520.5 511.14L518.87 505.08L517.26 499.01L516.06 492.87C515.26 488.76 514.36 484.66 513.91 480.5C513.39 476.35 512.65 472.2 512.51 468.01C512.24 463.83 511.86 459.63 511.99 455.44L511.98 449.12L512.34 442.82L512.52 439.66C512.61 438.61 512.76 437.57 512.88 436.52C513.14 434.43 513.36 432.32 513.66 430.23C515.02 421.9 516.85 413.55 520.16 405.65C517.88 409.29 516.21 413.27 514.58 417.26C513.86 419.29 513.05 421.3 512.39 423.35L510.54 429.57C510 431.67 509.56 433.78 509.06 435.89C508.82 436.95 508.55 438.01 508.35 439.07L507.82 442.27L506.76 448.71L506.16 455.19C505.65 459.53 505.65 463.87 505.55 468.23C505.32 472.6 505.7 476.93 505.86 481.3C506.01 483.47 505.94 485.68 506.29 487.83L507.09 494.32L507.91 500.82L509.15 507.25L510.41 513.68L511.04 516.9C511.29 517.96 511.6 519 511.87 520.06L515.27 532.71C516.52 536.9 518.11 540.96 519.52 545.09L521.7 551.27C522.4 553.34 523.37 555.3 524.19 557.31L534.4 581C535.83 584.87 537.41 588.53 538.76 592.44C540.06 596.37 541.5 600.25 542.58 604.26L544.32 610.22L545.83 616.26C546.9 620.26 547.64 624.36 548.52 628.42C549.32 632.49 549.99 636.6 550.66 640.7C551.18 644.83 551.93 648.92 552.33 653.07L553.04 659.28L553.57 665.51C553.97 669.66 554.12 673.84 554.38 678C554.74 686.34 554.98 694.7 554.82 703.07C554.58 719.81 553.51 736.57 551.47 753.23C551.03 757.01 550.54 760.78 550.01 764.55C547.5 749.51 542.09 734.5 533.77 719.51C534.93 740.55 534.51 757.71 532.52 770.99C528.68 796.5 509.97 830.83 508.27 833.67C507.39 835.09 506.58 836.52 505.65 837.92L502.82 842.09C500.9 844.86 499.12 847.72 497.14 850.46L491.23 858.7C489.24 861.43 487.15 864.1 485.11 866.81C483.12 869.55 480.97 872.17 478.9 874.87L472.52 882.82C475.03 880.52 477.5 878.17 479.91 875.78C482.3 873.36 484.78 871.01 487.11 868.53C489.45 866.05 491.82 863.6 494.12 861.08L500.94 853.44C503.24 850.9 505.34 848.2 507.52 845.56L510.77 841.57C511.84 840.23 512.84 838.79 513.88 837.4C515.92 834.59 518.03 831.79 520.03 828.95L525.48 820.34L526.82 818.18L526.9 818.04L527.07 817.73L527.22 817.43L527.53 816.84L528.13 815.65C528.91 814.05 529.8 812.47 530.48 810.84L532.55 805.94C533.21 804.29 533.75 802.62 534.36 800.96C534.98 799.3 535.48 797.62 535.98 795.93C536.46 794.24 537.03 792.57 537.43 790.86L538.72 785.76L538.86 785.11L542.85 806.26L549.28 840.31L558.4 806.76C560.77 798.01 562.57 789.67 564.19 781.07C565.79 772.51 567.14 763.93 568.28 755.31C569.38 746.69 570.24 738.03 570.84 729.35C571.19 725.01 571.37 720.66 571.6 716.32C571.7 711.96 571.89 707.61 571.88 703.25C572 694.54 571.72 685.81 571.28 677.09Z" />
			<path id="&lt;Path&gt;" class="shp1" d="M438.38 741.7C439.39 738.35 440.47 735.03 441.36 731.64L442.75 726.57L443.99 721.46C444.87 718.07 445.52 714.61 446.23 711.18C446.84 707.72 447.46 704.26 447.96 700.78C448.4 697.29 448.95 693.82 449.22 690.3L449.72 685.05L450 679.77C450.25 676.25 450.2 672.72 450.26 669.2C450.26 665.67 450.09 662.01 449.91 658.48L448.09 638.16C447.98 636.49 447.73 634.81 447.72 633.14L447.62 628.13C447.59 624.78 447.39 621.42 447.49 618.08L447.86 608.05C447.89 607.21 447.91 606.37 447.96 605.54L448.22 603.04L448.75 598.05L449.29 593.05L450.16 588.11C450.75 584.81 451.26 581.49 452.12 578.25C452.93 575 453.57 571.68 454.67 568.51C455.67 565.31 456.6 562.06 457.9 558.96L459.71 554.24L461.8 549.64L462.84 547.32C463.21 546.56 463.62 545.83 464.01 545.08C464.81 543.59 465.58 542.08 466.41 540.6C469.82 534.77 473.6 529.06 478.35 524.1C475.59 526.17 473.19 528.66 470.83 531.18C469.7 532.48 468.53 533.75 467.44 535.1L464.27 539.21C463.26 540.62 462.32 542.07 461.34 543.51C460.86 544.23 460.35 544.94 459.89 545.68L458.57 547.92L455.93 552.42L453.62 557.1C451.98 560.19 450.73 563.44 449.4 566.67C447.97 569.87 447.01 573.22 445.87 576.52C445.36 578.19 444.67 579.82 444.31 581.53L443.04 586.61L441.78 591.71L440.86 596.87L439.95 602.03L439.49 604.62C439.37 605.49 439.3 606.36 439.2 607.23L438.1 617.67C437.82 621.15 437.85 624.64 437.71 628.14L437.56 633.39C437.49 635.14 437.65 636.87 437.68 638.62L438.49 659.26C438.45 662.57 438.57 665.76 438.45 669.07C438.29 672.38 438.25 675.69 437.91 679L437.5 683.96L436.88 688.91C436.53 692.21 435.9 695.49 435.39 698.77C434.82 702.04 434.13 705.31 433.45 708.56C432.65 711.8 432.04 715.08 431.14 718.29L429.88 723.14L428.48 727.95C427.59 731.17 426.5 734.33 425.49 737.52C423.36 743.85 421.13 750.17 418.6 756.38C413.6 768.82 407.98 781.04 401.65 792.91C400.24 795.6 398.78 798.28 397.3 800.94C399.76 788.98 400.04 776.2 398.13 762.6C392.94 778.67 387.69 791.37 382.37 800.72C372.16 818.68 348.29 838.95 346.2 840.59C345.14 841.39 344.12 842.23 343.02 843.01L339.71 845.32C337.47 846.83 335.31 848.46 333.05 849.93L326.26 854.39C323.98 855.86 321.65 857.25 319.35 858.69C317.07 860.16 314.71 861.51 312.39 862.92L305.33 867.03C307.87 866.03 310.38 864.99 312.88 863.89C315.37 862.78 317.89 861.73 320.35 860.55C322.81 859.36 325.29 858.22 327.73 857L335.03 853.25C337.48 852.02 339.83 850.6 342.22 849.25L345.79 847.21C346.98 846.52 348.14 845.73 349.32 844.99C351.65 843.48 354.04 841.99 356.35 840.44L362.9 835.58L364.53 834.35L364.63 834.27L364.85 834.09L365.04 833.91L365.44 833.55L366.24 832.84C367.28 831.86 368.4 830.95 369.38 829.92L372.34 826.85C373.3 825.81 374.19 824.72 375.12 823.65C376.06 822.59 376.92 821.48 377.78 820.36C378.62 819.24 379.54 818.15 380.32 816.99L382.75 813.55L383.05 813.1L379.94 830.06L374.94 857.36L391.42 834.91C395.71 829.06 399.46 823.34 403.14 817.37C406.8 811.44 410.29 805.41 413.62 799.3C416.92 793.17 420.06 786.95 423.01 780.63C424.52 777.5 425.9 774.29 427.33 771.11C428.66 767.89 430.05 764.69 431.3 761.43C433.9 754.95 436.2 748.35 438.38 741.7Z" />
			<g id="&lt;Group&gt;">
				<path id="&lt;Path&gt;" class="shp1" d="M654.75 178.1C654.58 174.51 654.42 170.92 654 167.35C653.72 163.77 653.12 160.22 652.61 156.66C651.96 153.12 651.31 149.58 650.47 146.08C650.1 144.31 649.61 142.58 649.15 140.83C648.72 139.08 648.2 137.35 647.66 135.63C646.62 132.17 645.41 128.76 644.12 125.37C642.77 121.95 641.44 118.71 639.64 115.2L633.69 103.55L630.83 116.66C630.31 119.07 629.65 121.67 628.99 124.18C628.31 126.71 627.61 129.24 626.85 131.75C625.36 136.78 623.72 141.78 621.94 146.72C620.19 151.67 618.28 156.56 616.27 161.4C614.23 166.23 612.14 171.03 609.88 175.74L609.04 177.51L608.19 179.15L606.34 182.7L604.48 186.25L602.55 189.59C601.23 191.83 600.04 194.04 598.62 196.29L594.49 203.02L590.21 209.68C589.25 211.21 588.25 212.71 587.24 214.21C587.02 212.7 586.83 211.18 586.59 209.67C585.4 202.1 584.04 194.55 582.45 187C581.68 183.23 580.79 179.46 579.88 175.69L578.44 170.04L576.82 164.39C575.66 160.63 574.47 156.87 573 153.1L572.47 151.69L572.15 150.86L571.87 150.2L570.76 147.6C570.08 145.92 569.09 143.95 568.25 142.13C566.48 138.49 564.59 135.01 562.56 131.55C560.5 128.13 558.37 124.75 556.05 121.51C551.46 114.97 546.32 108.85 540.79 103.11C535.25 97.39 529.27 92.1 522.9 87.3C519.72 84.89 516.45 82.6 513.07 80.44C511.38 79.36 509.66 78.31 507.9 77.3L505.21 75.8C504.26 75.3 503.45 74.87 502.25 74.3L479.84 63.62L491.52 85.75C492.66 87.91 493.89 90.38 495.02 92.75C496.17 95.15 497.3 97.57 498.38 100.02C500.56 104.9 502.63 109.83 504.56 114.82C505.55 117.3 506.47 119.81 507.38 122.32C508.31 124.83 509.13 127.37 510.01 129.89L512.43 137.51C513.15 140.06 513.96 142.6 514.61 145.17C515.26 147.74 516 150.3 516.55 152.88L517.44 156.75L517.66 157.72L517.83 158.57L518.21 160.59C518.7 163.26 519.03 165.49 519.36 168.18C519.69 170.77 519.97 173.39 520.19 176.03C520.2 176.18 520.2 176.33 520.22 176.48C519.28 175.33 518.32 174.2 517.35 173.08C509.17 163.68 499.79 155.39 489.58 148.36C479.39 141.31 468.37 135.56 456.96 131.01C445.53 126.47 433.7 123.1 421.72 120.92C409.74 118.69 397.64 117.51 385.58 117.11C373.51 116.77 361.47 117.15 349.54 118.24C346.55 118.49 343.57 118.81 340.6 119.15L338.37 119.4L336.1 119.7L331.75 120.28C328.82 120.7 325.77 121.19 322.81 121.67C319.86 122.21 316.91 122.7 313.99 123.33C302.27 125.7 290.68 128.63 279.27 132.04C256.48 138.94 234.29 147.54 212.89 157.69C191.49 167.83 170.76 179.22 150.7 191.61C140.7 197.86 130.84 204.32 121.16 211.02C111.47 217.71 101.92 224.59 92.59 231.76C73.92 246.06 55.83 261.11 38.9 277.37C47.91 269.86 57.25 262.76 66.68 255.84C76.1 248.88 85.65 242.12 95.35 235.59C114.74 222.52 134.55 210.13 154.94 198.81C165.13 193.16 175.39 187.63 185.82 182.48C196.25 177.32 206.78 172.4 217.47 167.87C238.83 158.8 260.63 150.83 282.92 144.84C294.06 141.85 305.3 139.35 316.62 137.38C319.44 136.86 322.29 136.48 325.11 136C327.95 135.59 330.69 135.19 333.57 134.83L337.94 134.32L340.03 134.08L342.17 133.88C345.03 133.6 347.88 133.34 350.74 133.16C362.16 132.3 373.6 132.15 384.96 132.66C396.32 133.23 407.59 134.53 418.63 136.78C440.67 141.27 461.92 149.37 480.06 162.09C489.12 168.42 497.4 175.82 504.56 184.15C508.14 188.3 511.43 192.7 514.38 197.27C515.86 199.56 517.24 201.89 518.51 204.25C519.14 205.43 519.75 206.62 520.31 207.8L521.11 209.56C521.34 210.09 521.64 210.81 521.73 211.07L537.31 253.08L538.33 208.33C538.4 205.39 538.37 202.65 538.34 199.82C538.29 197.02 538.23 194.21 538.12 191.41C537.92 185.8 537.59 180.18 537.07 174.53C536.82 171.7 536.51 168.87 536.13 166.02C535.78 163.28 535.28 160.08 534.76 157.36L534.36 155.35L534.12 154.18L533.88 153.15L532.92 149C532.31 146.22 531.52 143.51 530.81 140.77C530.1 138.03 529.24 135.34 528.46 132.63L525.87 124.58C524.94 121.93 524.06 119.25 523.07 116.62C522.1 113.98 521.12 111.34 520.07 108.74C519.55 107.4 518.99 106.08 518.45 104.75C522.17 107.83 525.76 111.08 529.17 114.5C534.19 119.59 538.87 125.02 543.03 130.81C545.15 133.68 547.08 136.68 548.96 139.71C550.8 142.75 552.55 145.9 554.12 149.04C554.88 150.64 555.64 152.03 556.41 153.84L557.55 156.43L557.84 157.08L558.03 157.57L558.51 158.8C559.85 162.06 561.01 165.48 562.14 168.92L563.74 174.15L565.2 179.45C566.12 183.01 567.04 186.59 567.84 190.21C569.49 197.42 570.95 204.73 572.24 212.06L574.09 223.09C574.68 226.76 575.23 230.49 575.71 234.09L578.21 252.85L588.37 237.28L592.82 230.46L597.16 223.62C598.58 221.32 600.04 219.05 601.41 216.72L605.59 209.76L609.64 202.71C611 200.4 612.28 197.87 613.6 195.45L615.56 191.8L617.31 188.19L619.06 184.58L620 182.63L620.81 180.75C623.02 175.76 625.08 170.71 626.96 165.59C628.85 160.49 630.61 155.34 632.21 150.14C633.83 144.95 635.31 139.72 636.65 134.44C636.83 133.74 636.98 133.02 637.15 132.31C637.96 134.3 638.73 136.31 639.43 138.34C640.58 141.56 641.63 144.83 642.56 148.13C643.54 151.42 644.32 154.76 645.1 158.1C645.75 161.47 646.5 164.83 646.95 168.24C647.52 171.64 647.84 175.06 648.17 178.49C648.39 180.21 648.38 181.89 648.5 183.6C648.56 185.32 648.74 186.97 648.7 188.75L648.68 194.02L648.68 195.34L648.68 195.92L648.64 196.56L648.52 199.13C648.3 202.55 647.99 205.98 647.47 209.38C647.01 212.8 646.3 216.18 645.56 219.56C644.74 222.92 643.88 226.28 642.81 229.59C641.76 232.89 640.62 236.18 639.32 239.42C636.76 245.89 633.82 252.24 630.46 258.39C627.1 264.52 623.4 270.51 619.14 276.11C623.8 270.83 627.94 265.1 631.79 259.17C635.59 253.22 639.12 247.05 642.09 240.6C648.08 227.75 652.4 213.93 654.03 199.6L654.3 196.91L654.37 196.24L654.41 195.5L654.48 194.18L654.76 188.92C654.86 185.38 654.86 181.68 654.75 178.1Z" />
				<path id="&lt;Path&gt;" class="shp1" d="M359.24 316.16C359.98 310.7 361.66 305.8 364.62 302.05C367.49 298.22 371.76 295.43 376.68 293.54C381.6 291.66 387.04 290.67 392.33 290.21C397.63 289.73 402.82 289.72 407.64 289.92C412.46 290.11 416.93 290.52 420.9 290.95C424.87 291.38 428.36 291.83 431.21 292.29C436.96 293.14 440.27 293.78 440.27 293.78C438.36 292.6 435.62 291.18 432.06 289.51C426.7 287.07 418.88 283.77 408.87 281.34C403.87 280.14 398.32 279.13 392.24 278.72C386.18 278.37 379.54 278.51 372.59 280.3C365.69 281.99 358.28 285.71 352.71 291.89C349.97 294.96 347.69 298.51 346.07 302.22C344.41 305.93 343.4 309.8 342.73 313.6C342.4 315.51 342.19 317.4 342.02 319.28C341.88 321.13 341.83 323.13 341.81 324.67C341.74 327.88 341.71 331.47 341.86 334.86C342.08 341.62 342.75 348.27 343.77 354.66C344.81 361.04 346.21 367.14 347.91 372.83C349.62 378.51 351.59 383.77 353.73 388.48C355.86 393.2 358.12 397.38 360.34 400.93C362.55 404.5 364.73 407.44 366.65 409.76C368.52 412.11 370.18 413.79 371.34 414.91C372.1 415.65 372.72 416.2 373.18 416.54C372.98 416.01 372.68 415.26 372.3 414.27C371.76 412.79 371.01 410.61 370.12 407.87C368.43 402.32 366.24 394.48 364.36 385.02C362.47 375.57 360.87 364.54 359.91 352.67C359.41 346.74 359.08 340.59 358.93 334.33C358.91 331.21 358.77 328.24 358.81 324.85C358.79 323.1 358.84 321.8 358.88 320.34C358.96 318.93 359.05 317.52 359.24 316.16Z" />
				<path id="&lt;Path&gt;" class="shp1" d="M436.64 321.46C433.3 319.75 428.4 317.52 421.9 316.11C418.64 315.44 414.99 314.92 410.88 315.16C406.83 315.44 402.1 316.37 397.76 319.47C393.34 322.43 390.28 327.67 389.13 332.65C388.9 333.89 388.58 335.17 388.47 336.39L388.3 338.24L388.23 339.17L388.22 339.23L388.23 339.72L388.23 339.82L388.24 340.01L388.25 340.4L388.37 343.49L388.43 345.04L388.46 345.82L388.6 346.75L389.25 350.43C389.5 351.63 389.67 352.94 390.05 353.98C390.75 356.16 391.37 358.4 392.28 360.44C393.99 364.6 396.12 368.41 398.42 371.87C399.65 373.55 400.73 375.28 402.01 376.8C403.3 378.3 404.47 379.83 405.76 381.19C407.07 382.53 408.3 383.86 409.55 385.07C410.85 386.24 412.1 387.37 413.3 388.45C415.78 390.51 418.11 392.31 420.27 393.78C422.41 395.26 424.36 396.43 425.98 397.35C427.57 398.31 428.93 398.91 429.82 399.36C430.42 399.65 430.89 399.86 431.23 399.99C430.36 398.88 429.17 397.35 427.65 395.41C426.52 393.99 425.21 392.19 423.7 390.19C422.19 388.18 420.55 385.89 418.79 383.42C417.94 382.17 417.05 380.87 416.13 379.52C415.26 378.16 414.36 376.75 413.44 375.31C412.57 373.85 411.68 372.35 410.78 370.82C409.89 369.29 409.1 367.68 408.24 366.09C407.38 364.48 406.72 362.79 405.91 361.13C405.5 360.31 405.21 359.44 404.91 358.58C404.58 357.73 404.25 356.87 403.92 356.01C403.24 354.3 402.96 352.5 402.37 350.76C402.05 349.85 402.03 349.08 401.86 348.26L401.41 345.83L401.28 345.23L401.23 344.45L401.14 342.9L400.97 339.81L400.95 339.42L400.95 339.39L400.98 338.88L401.02 337.65C401.03 336.82 401.21 336.11 401.28 335.33C401.87 332.39 402.89 330.13 404.74 328.43C406.54 326.67 409.3 325.46 412.24 324.7C415.18 323.93 418.31 323.63 421.23 323.49C427.12 323.24 432.3 323.63 435.93 323.9C437.75 324.07 439.19 324.21 440.17 324.3C440.83 324.37 441.34 324.42 441.69 324.45C441.41 324.24 440.98 323.96 440.41 323.6C439.55 323.09 438.31 322.28 436.64 321.46Z" />
			</g>
			<path id="&lt;Path&gt;" class="shp1" d="M157.78 233.61C161.22 231.26 166.05 228.22 172.29 224.48C176.97 221.67 182.68 218.31 189.35 214.66C196 210.98 203.57 206.92 211.97 202.78C220.35 198.61 229.49 194.18 239.37 189.93C249.23 185.65 259.71 181.27 270.78 177.3C281.83 173.31 293.38 169.4 305.37 166.23C317.36 163.03 329.71 160.28 342.29 158.4C354.87 156.63 367.68 155.7 380.39 156.47C381.98 156.57 383.57 156.67 385.15 156.78C386.73 156.89 388.31 157.16 389.88 157.35C391.45 157.57 393.02 157.79 394.58 158.01C396.11 158.31 397.63 158.61 399.14 158.92C400.63 159.23 402.05 159.47 403.57 159.84C405.09 160.23 406.6 160.61 408.11 160.99C411.16 161.69 414.01 162.68 416.9 163.54C428.43 167.13 438.98 172.35 448.32 178.21C453 181.13 457.35 184.28 461.37 187.54C465.34 190.87 469.06 194.21 472.37 197.67C479.11 204.46 484.35 211.5 488.56 217.94C492.81 224.38 495.8 230.39 498.07 235.39C500.35 240.39 501.72 244.49 502.6 247.28C503.18 249.15 503.58 250.59 503.79 251.61C503.4 250.64 502.79 249.28 501.96 247.53C500.72 244.9 498.73 241.12 495.95 236.5C493.16 231.89 489.5 226.45 484.84 220.63C480.14 214.84 474.46 208.64 467.62 202.66C460.77 196.7 452.8 190.9 443.75 185.92C434.71 180.94 424.63 176.72 413.82 173.65C411.1 172.94 408.36 172.09 405.62 171.57C404.25 171.27 402.88 170.97 401.5 170.67C400.11 170.37 398.58 170.16 397.12 169.9C395.69 169.67 394.25 169.43 392.81 169.19C391.38 169.04 389.95 168.9 388.51 168.75C387.07 168.61 385.65 168.38 384.19 168.3L379.8 168.09C368.08 167.64 355.99 168.53 343.99 170.27C331.96 171.93 319.99 174.44 308.31 177.42C296.64 180.46 285.16 183.64 274.2 187.27C263.25 190.9 252.66 194.51 242.71 198.21C232.77 201.93 223.4 205.57 214.79 209.04C206.19 212.55 198.3 215.79 191.36 218.77C184.42 221.77 178.35 224.36 173.38 226.58C168.42 228.81 164.52 230.56 161.86 231.75C160.09 232.56 158.73 233.18 157.78 233.61Z" />
		</g>
	</g>
</svg>
